<svg width="53" height="18" viewBox="0 0 53 18" fill="none" xmlns="http://www.w3.org/2000/svg">
<path d="M4.20756 13.112C3.42889 13.112 2.72489 12.9787 2.09556 12.712C1.47689 12.4453 0.986225 12.0613 0.623559 11.56C0.260892 11.0587 0.0742253 10.4667 0.0635586 9.784H2.46356C2.49556 10.2427 2.65556 10.6053 2.94356 10.872C3.24223 11.1387 3.64756 11.272 4.15956 11.272C4.68223 11.272 5.09289 11.1493 5.39156 10.904C5.69023 10.648 5.83956 10.3173 5.83956 9.912C5.83956 9.58133 5.73823 9.30933 5.53556 9.096C5.33289 8.88267 5.07689 8.71733 4.76756 8.6C4.46889 8.472 4.05289 8.33333 3.51956 8.184C2.79423 7.97067 2.20223 7.76267 1.74356 7.56C1.29556 7.34667 0.906225 7.032 0.575559 6.616C0.255559 6.18933 0.0955586 5.624 0.0955586 4.92C0.0955586 4.25867 0.260892 3.68267 0.591559 3.192C0.922225 2.70133 1.38623 2.328 1.98356 2.072C2.58089 1.80533 3.26356 1.672 4.03156 1.672C5.18356 1.672 6.11689 1.95467 6.83156 2.52C7.55689 3.07467 7.95689 3.85333 8.03156 4.856H5.56756C5.54623 4.472 5.38089 4.15733 5.07156 3.912C4.77289 3.656 4.37289 3.528 3.87156 3.528C3.43423 3.528 3.08223 3.64 2.81556 3.864C2.55956 4.088 2.43156 4.41333 2.43156 4.84C2.43156 5.13867 2.52756 5.38933 2.71956 5.592C2.92223 5.784 3.16756 5.944 3.45556 6.072C3.75423 6.18933 4.17023 6.328 4.70356 6.488C5.42889 6.70133 6.02089 6.91467 6.47956 7.128C6.93823 7.34133 7.33289 7.66133 7.66356 8.088C7.99423 8.51467 8.15956 9.07467 8.15956 9.768C8.15956 10.3653 8.00489 10.92 7.69556 11.432C7.38623 11.944 6.93289 12.3547 6.33556 12.664C5.73823 12.9627 5.02889 13.112 4.20756 13.112ZM11.2376 3.08C10.8429 3.08 10.5122 2.95733 10.2456 2.712C9.98956 2.456 9.86156 2.14133 9.86156 1.768C9.86156 1.39467 9.98956 1.08533 10.2456 0.839999C10.5122 0.583999 10.8429 0.455999 11.2376 0.455999C11.6322 0.455999 11.9576 0.583999 12.2136 0.839999C12.4802 1.08533 12.6136 1.39467 12.6136 1.768C12.6136 2.14133 12.4802 2.456 12.2136 2.712C11.9576 2.95733 11.6322 3.08 11.2376 3.08ZM12.3416 4.136V13H10.1016V4.136H12.3416ZM18.0267 3.992C18.688 3.992 19.2694 4.12533 19.7707 4.392C20.272 4.648 20.6667 4.984 20.9547 5.4V4.136H23.2107V13.064C23.2107 13.8853 23.0454 14.616 22.7147 15.256C22.384 15.9067 21.888 16.4187 21.2267 16.792C20.5654 17.176 19.7654 17.368 18.8267 17.368C17.568 17.368 16.5334 17.0747 15.7227 16.488C14.9227 15.9013 14.4694 15.1013 14.3627 14.088H16.5867C16.704 14.4933 16.9547 14.8133 17.3387 15.048C17.7334 15.2933 18.208 15.416 18.7627 15.416C19.4134 15.416 19.9414 15.2187 20.3467 14.824C20.752 14.44 20.9547 13.8533 20.9547 13.064V11.688C20.6667 12.104 20.2667 12.4507 19.7547 12.728C19.2534 13.0053 18.6774 13.144 18.0267 13.144C17.28 13.144 16.5974 12.952 15.9787 12.568C15.36 12.184 14.8694 11.6453 14.5067 10.952C14.1547 10.248 13.9787 9.44267 13.9787 8.536C13.9787 7.64 14.1547 6.84533 14.5067 6.152C14.8694 5.45867 15.3547 4.92533 15.9627 4.552C16.5814 4.17867 17.2694 3.992 18.0267 3.992ZM20.9547 8.568C20.9547 8.024 20.848 7.56 20.6347 7.176C20.4214 6.78133 20.1334 6.48267 19.7707 6.28C19.408 6.06667 19.0187 5.96 18.6027 5.96C18.1867 5.96 17.8027 6.06133 17.4507 6.264C17.0987 6.46667 16.8107 6.76533 16.5867 7.16C16.3734 7.544 16.2667 8.00267 16.2667 8.536C16.2667 9.06933 16.3734 9.53867 16.5867 9.944C16.8107 10.3387 17.0987 10.6427 17.4507 10.856C17.8134 11.0693 18.1974 11.176 18.6027 11.176C19.0187 11.176 19.408 11.0747 19.7707 10.872C20.1334 10.6587 20.4214 10.36 20.6347 9.976C20.848 9.58133 20.9547 9.112 20.9547 8.568ZM30.3104 4.008C31.3664 4.008 32.2198 4.344 32.8704 5.016C33.5211 5.67733 33.8464 6.60533 33.8464 7.8V13H31.6064V8.104C31.6064 7.4 31.4304 6.86133 31.0784 6.488C30.7264 6.104 30.2464 5.912 29.6384 5.912C29.0198 5.912 28.5291 6.104 28.1664 6.488C27.8144 6.86133 27.6384 7.4 27.6384 8.104V13H25.3984V4.136H27.6384V5.24C27.9371 4.856 28.3158 4.55733 28.7744 4.344C29.2438 4.12 29.7558 4.008 30.3104 4.008ZM42.0291 1.832V13H39.7891V1.832H42.0291ZM49.1542 4.008C50.2102 4.008 51.0635 4.344 51.7142 5.016C52.3649 5.67733 52.6902 6.60533 52.6902 7.8V13H50.4502V8.104C50.4502 7.4 50.2742 6.86133 49.9222 6.488C49.5702 6.104 49.0902 5.912 48.4822 5.912C47.8635 5.912 47.3729 6.104 47.0102 6.488C46.6582 6.86133 46.4822 7.4 46.4822 8.104V13H44.2422V4.136H46.4822V5.24C46.7809 4.856 47.1595 4.55733 47.6182 4.344C48.0875 4.12 48.5995 4.008 49.1542 4.008Z" fill="#173A56"/>
</svg>
