<svg width="61" height="18" viewBox="0 0 61 18" fill="none" xmlns="http://www.w3.org/2000/svg">
<path d="M4.96 13.112C4.18133 13.112 3.47733 12.9787 2.848 12.712C2.22933 12.4453 1.73867 12.0613 1.376 11.56C1.01333 11.0587 0.826667 10.4667 0.816 9.784H3.216C3.248 10.2427 3.408 10.6053 3.696 10.872C3.99467 11.1387 4.4 11.272 4.912 11.272C5.43467 11.272 5.84533 11.1493 6.144 10.904C6.44267 10.648 6.592 10.3173 6.592 9.912C6.592 9.58133 6.49067 9.30933 6.288 9.096C6.08533 8.88267 5.82933 8.71733 5.52 8.6C5.22133 8.472 4.80533 8.33333 4.272 8.184C3.54667 7.97067 2.95467 7.76267 2.496 7.56C2.048 7.34667 1.65867 7.032 1.328 6.616C1.008 6.18933 0.848 5.624 0.848 4.92C0.848 4.25867 1.01333 3.68267 1.344 3.192C1.67467 2.70133 2.13867 2.328 2.736 2.072C3.33333 1.80533 4.016 1.672 4.784 1.672C5.936 1.672 6.86933 1.95467 7.584 2.52C8.30933 3.07467 8.70933 3.85333 8.784 4.856H6.32C6.29867 4.472 6.13333 4.15733 5.824 3.912C5.52533 3.656 5.12533 3.528 4.624 3.528C4.18667 3.528 3.83467 3.64 3.568 3.864C3.312 4.088 3.184 4.41333 3.184 4.84C3.184 5.13867 3.28 5.38933 3.472 5.592C3.67467 5.784 3.92 5.944 4.208 6.072C4.50667 6.18933 4.92267 6.328 5.456 6.488C6.18133 6.70133 6.77333 6.91467 7.232 7.128C7.69067 7.34133 8.08533 7.66133 8.416 8.088C8.74667 8.51467 8.912 9.07467 8.912 9.768C8.912 10.3653 8.75733 10.92 8.448 11.432C8.13867 11.944 7.68533 12.3547 7.088 12.664C6.49067 12.9627 5.78133 13.112 4.96 13.112ZM11.99 3.08C11.5953 3.08 11.2647 2.95733 10.998 2.712C10.742 2.456 10.614 2.14133 10.614 1.768C10.614 1.39467 10.742 1.08533 10.998 0.839999C11.2647 0.583999 11.5953 0.455999 11.99 0.455999C12.3847 0.455999 12.71 0.583999 12.966 0.839999C13.2327 1.08533 13.366 1.39467 13.366 1.768C13.366 2.14133 13.2327 2.456 12.966 2.712C12.71 2.95733 12.3847 3.08 11.99 3.08ZM13.094 4.136V13H10.854V4.136H13.094ZM18.7791 3.992C19.4405 3.992 20.0218 4.12533 20.5231 4.392C21.0245 4.648 21.4191 4.984 21.7071 5.4V4.136H23.9631V13.064C23.9631 13.8853 23.7978 14.616 23.4671 15.256C23.1365 15.9067 22.6405 16.4187 21.9791 16.792C21.3178 17.176 20.5178 17.368 19.5791 17.368C18.3205 17.368 17.2858 17.0747 16.4751 16.488C15.6751 15.9013 15.2218 15.1013 15.1151 14.088H17.3391C17.4565 14.4933 17.7071 14.8133 18.0911 15.048C18.4858 15.2933 18.9605 15.416 19.5151 15.416C20.1658 15.416 20.6938 15.2187 21.0991 14.824C21.5045 14.44 21.7071 13.8533 21.7071 13.064V11.688C21.4191 12.104 21.0191 12.4507 20.5071 12.728C20.0058 13.0053 19.4298 13.144 18.7791 13.144C18.0325 13.144 17.3498 12.952 16.7311 12.568C16.1125 12.184 15.6218 11.6453 15.2591 10.952C14.9071 10.248 14.7311 9.44267 14.7311 8.536C14.7311 7.64 14.9071 6.84533 15.2591 6.152C15.6218 5.45867 16.1071 4.92533 16.7151 4.552C17.3338 4.17867 18.0218 3.992 18.7791 3.992ZM21.7071 8.568C21.7071 8.024 21.6005 7.56 21.3871 7.176C21.1738 6.78133 20.8858 6.48267 20.5231 6.28C20.1605 6.06667 19.7711 5.96 19.3551 5.96C18.9391 5.96 18.5551 6.06133 18.2031 6.264C17.8511 6.46667 17.5631 6.76533 17.3391 7.16C17.1258 7.544 17.0191 8.00267 17.0191 8.536C17.0191 9.06933 17.1258 9.53867 17.3391 9.944C17.5631 10.3387 17.8511 10.6427 18.2031 10.856C18.5658 11.0693 18.9498 11.176 19.3551 11.176C19.7711 11.176 20.1605 11.0747 20.5231 10.872C20.8858 10.6587 21.1738 10.36 21.3871 9.976C21.6005 9.58133 21.7071 9.112 21.7071 8.568ZM31.0629 4.008C32.1189 4.008 32.9722 4.344 33.6229 5.016C34.2735 5.67733 34.5989 6.60533 34.5989 7.8V13H32.3589V8.104C32.3589 7.4 32.1829 6.86133 31.8309 6.488C31.4789 6.104 30.9989 5.912 30.3909 5.912C29.7722 5.912 29.2815 6.104 28.9189 6.488C28.5669 6.86133 28.3909 7.4 28.3909 8.104V13H26.1509V4.136H28.3909V5.24C28.6895 4.856 29.0682 4.55733 29.5269 4.344C29.9962 4.12 30.5082 4.008 31.0629 4.008ZM42.7495 1.832V8.744C42.7495 9.50133 42.9468 10.0827 43.3415 10.488C43.7362 10.8827 44.2908 11.08 45.0055 11.08C45.7308 11.08 46.2908 10.8827 46.6855 10.488C47.0802 10.0827 47.2775 9.50133 47.2775 8.744V1.832H49.5335V8.728C49.5335 9.67733 49.3255 10.4827 48.9095 11.144C48.5042 11.7947 47.9548 12.2853 47.2615 12.616C46.5788 12.9467 45.8162 13.112 44.9735 13.112C44.1415 13.112 43.3842 12.9467 42.7015 12.616C42.0295 12.2853 41.4962 11.7947 41.1015 11.144C40.7068 10.4827 40.5095 9.67733 40.5095 8.728V1.832H42.7495ZM53.9378 5.416C54.2258 5.01067 54.6204 4.67467 55.1218 4.408C55.6338 4.13067 56.2151 3.992 56.8658 3.992C57.6231 3.992 58.3058 4.17867 58.9138 4.552C59.5324 4.92533 60.0178 5.45867 60.3698 6.152C60.7324 6.83467 60.9138 7.62933 60.9138 8.536C60.9138 9.44267 60.7324 10.248 60.3698 10.952C60.0178 11.6453 59.5324 12.184 58.9138 12.568C58.3058 12.952 57.6231 13.144 56.8658 13.144C56.2151 13.144 55.6391 13.0107 55.1378 12.744C54.6471 12.4773 54.2471 12.1413 53.9378 11.736V17.224H51.6978V4.136H53.9378V5.416ZM58.6258 8.536C58.6258 8.00267 58.5138 7.544 58.2898 7.16C58.0764 6.76533 57.7884 6.46667 57.4258 6.264C57.0738 6.06133 56.6898 5.96 56.2738 5.96C55.8684 5.96 55.4844 6.06667 55.1218 6.28C54.7698 6.48267 54.4818 6.78133 54.2578 7.176C54.0444 7.57067 53.9378 8.03467 53.9378 8.568C53.9378 9.10133 54.0444 9.56533 54.2578 9.96C54.4818 10.3547 54.7698 10.6587 55.1218 10.872C55.4844 11.0747 55.8684 11.176 56.2738 11.176C56.6898 11.176 57.0738 11.0693 57.4258 10.856C57.7884 10.6427 58.0764 10.3387 58.2898 9.944C58.5138 9.54933 58.6258 9.08 58.6258 8.536Z" fill="white"/>
</svg>
